<?xml version="1.0" encoding="utf-8"?>
<!-- Generator: Adobe Illustrator 26.3.1, SVG Export Plug-In . SVG Version: 6.00 Build 0)  -->
<svg version="1.1" id="Layer_1" xmlns="http://www.w3.org/2000/svg" xmlns:xlink="http://www.w3.org/1999/xlink" x="0px" y="0px"
	 viewBox="0 0 1250.3 347" style="enable-background:new 0 0 1250.3 347;" xml:space="preserve">
<style type="text/css">
	.st0{fill:#67ADA9;}
	.st1{fill:#0A0200;}
	.st2{fill:#F15A29;}
	.st3{fill:#262262;}
	.st4{fill:#3A7345;}
	.st5{fill:#A6A5A5;}
</style>
<polygon class="st0" points="0,0 0,0 0,0 "/>
<path class="st1" d="M354.2,406.3h-458.3V298c0,0,128.7-176.8,233-176.8s300.6,193.6,300.6,193.6L354.2,406.3z"/>
<path class="st2" d="M779.1,358.6H363l-92.3-104.7c0,0,198.9-187.4,293.7-187.4s214.9,183.9,214.9,183.9L779.1,358.6L779.1,358.6z"
	/>
<path class="st3" d="M612.4,367.8H196.2L24.4,302.6c0,0,284.5-175.8,379.3-175.8S637,247.3,637,247.3L612.4,367.8L612.4,367.8z"/>
<path class="st1" d="M620.6,408.6H204.5V300.3c0,0,112.7-132.8,207.4-132.8s208.7,132.8,208.7,132.8L620.6,408.6L620.6,408.6z"/>
<path class="st4" d="M317.1,453.6h-380V345.3c0,0,102.9-163.1,189.4-163.1s303,169.7,303,169.7L317.1,453.6L317.1,453.6z"/>
<path class="st1" d="M970.6,411.8H512.3V303.5c0,0,128.7-176.8,233-176.8s300.6,193.6,300.6,193.6L970.6,411.8L970.6,411.8z"/>
<path class="st2" d="M1325.8,375.8H909.6l-92.3-104.7c0,0,198.9-187.4,293.7-187.4s214.8,183.9,214.8,183.9V375.8L1325.8,375.8z"/>
<path class="st4" d="M1235.9,384.3H819.8L647.9,319c0,0,284.5-175.8,379.3-175.8s233.3,120.5,233.3,120.5L1235.9,384.3L1235.9,384.3
	z"/>
<path class="st1" d="M1318.9,445.5H870.4V337.3c0,0,121.5-163.1,223.5-163.1s357.6,169.7,357.6,169.7L1318.9,445.5L1318.9,445.5z"/>
<polygon class="st1" points="-68.9,301.5 -68.9,301.5 -68.9,301.5 "/>
<polygon class="st5" points="1246.7,-36.7 1246.7,-36.7 1246.7,-36.7 "/>
<path class="st3" d="M966.5,453.6H554V345.3c0,0,111.7-132.8,205.6-132.8s206.9,132.8,206.9,132.8L966.5,453.6L966.5,453.6z"/>
</svg>
